<svg width="487" height="174" viewBox="0 0 487 174" fill="none" xmlns="http://www.w3.org/2000/svg">
<mask id="mask0_3_3" style="mask-type:luminance" maskUnits="userSpaceOnUse" x="344" y="76" width="134" height="6">
<path d="M344 76.2031H477.365V81.625H344V76.2031Z" fill="white"/>
</mask>
<g mask="url(#mask0_3_3)">
<path d="M308.88 78.0312L476.297 76.776L301.135 85.8385L308.88 78.0312Z" fill="#FF1744" fill-opacity="0.3"/>
</g>
<mask id="mask1_3_3" style="mask-type:luminance" maskUnits="userSpaceOnUse" x="344" y="68" width="137" height="10">
<path d="M344 68.2031H480.031V77.5365H344V68.2031Z" fill="white"/>
</mask>
<g mask="url(#mask1_3_3)">
<path d="M310.615 69.6927L479.266 68.6302L310.766 77.2187L310.615 69.6927Z" fill="#FF1744" fill-opacity="0.3"/>
</g>
<mask id="mask2_3_3" style="mask-type:luminance" maskUnits="userSpaceOnUse" x="344" y="60" width="139" height="10">
<path d="M344 60.2031H482.698V69.5365H344V60.2031Z" fill="white"/>
</mask>
<g mask="url(#mask2_3_3)">
<path d="M312.349 61.3542L482.224 60.4844L312.495 68.875L312.349 61.3542Z" fill="#FF1744" fill-opacity="0.3"/>
</g>
<mask id="mask3_3_3" style="mask-type:luminance" maskUnits="userSpaceOnUse" x="344" y="52" width="142" height="10">
<path d="M344 52.2031H485.365V61.5365H344V52.2031Z" fill="white"/>
</mask>
<g mask="url(#mask3_3_3)">
<path d="M314.089 53.0104L485.193 52.3333L314.224 60.5364L314.089 53.0104Z" fill="#FF1744" fill-opacity="0.3"/>
</g>
<mask id="mask4_3_3" style="mask-type:luminance" maskUnits="userSpaceOnUse" x="344" y="42" width="143" height="11">
<path d="M344 42.8698H486.307V52.2031H344V42.8698Z" fill="white"/>
</mask>
<g mask="url(#mask4_3_3)">
<path d="M315.818 44.6719L488.156 44.1875L315.948 52.1979L315.818 44.6719Z" fill="#FF1744" fill-opacity="0.3"/>
</g>
<mask id="mask5_3_3" style="mask-type:luminance" maskUnits="userSpaceOnUse" x="344" y="34" width="143" height="11">
<path d="M344 34.8698H486.307V44.2031H344V34.8698Z" fill="white"/>
</mask>
<g mask="url(#mask5_3_3)">
<path d="M317.557 36.3333L491.125 36.0416L317.682 43.8541L317.557 36.3333Z" fill="#FF1744" fill-opacity="0.3"/>
</g>
<mask id="mask6_3_3" style="mask-type:luminance" maskUnits="userSpaceOnUse" x="344" y="26" width="143" height="11">
<path d="M344 26.8698H486.307V36.2031H344V26.8698Z" fill="white"/>
</mask>
<g mask="url(#mask6_3_3)">
<path d="M319.297 27.9947L494.083 27.8958L319.411 35.5155L319.297 27.9947Z" fill="#FF1744" fill-opacity="0.3"/>
</g>
<mask id="mask7_3_3" style="mask-type:luminance" maskUnits="userSpaceOnUse" x="344" y="18" width="143" height="11">
<path d="M344 18.8698H486.307V28.2031H344V18.8698Z" fill="white"/>
</mask>
<g mask="url(#mask7_3_3)">
<path d="M321.026 19.6562L497.052 19.75L321.141 27.1771L321.026 19.6562Z" fill="#FF1744" fill-opacity="0.3"/>
</g>
<mask id="mask8_3_3" style="mask-type:luminance" maskUnits="userSpaceOnUse" x="344" y="10" width="143" height="9">
<path d="M344 10.8698H486.307V18.8698H344V10.8698Z" fill="white"/>
</mask>
<g mask="url(#mask8_3_3)">
<path d="M322.766 11.3176L500.016 11.5989L322.87 18.8333L322.766 11.3176Z" fill="#FF1744" fill-opacity="0.3"/>
</g>
<mask id="mask9_3_3" style="mask-type:luminance" maskUnits="userSpaceOnUse" x="344" y="4" width="21" height="78">
<path d="M344 4H364.031V81.625H344V4Z" fill="white"/>
</mask>
<g mask="url(#mask9_3_3)">
<path d="M351.729 -16.7552L363.162 -55.8698H320.333C318.589 -55.8698 316.839 -55.7343 315.099 -55.4531C313.354 -55.1822 311.724 -54.6093 310.208 -53.7343C308.693 -52.8593 307.339 -51.6458 306.146 -50.0833C304.948 -48.5208 303.99 -46.5052 303.255 -44.0208L283.151 24.0105H314.688C315.604 24.0105 316.136 24.198 316.271 24.5625C316.412 24.9271 316.386 25.3855 316.203 25.9375L305.047 63.6771C304.682 64.9584 304.172 65.8125 303.537 66.224C302.891 66.6355 301.927 66.8386 300.641 66.8386H295.406C294.583 66.8386 293.896 66.6823 293.344 66.3594C292.792 66.0365 292.698 65.2813 293.068 64.0834L298.302 46.7344H276.406L269.521 70.4219C268.146 75.0157 268.531 78.7344 270.688 81.5782C272.849 84.4271 275.896 85.8438 279.849 85.8438H306.984C308.724 85.8438 310.495 85.7084 312.281 85.4323C314.078 85.1563 315.771 84.6042 317.375 83.7813C318.984 82.9532 320.453 81.7865 321.781 80.2657C323.109 78.75 324.141 76.75 324.88 74.2761L338.927 26.4844C339.938 23 340.323 20.0157 340.094 17.5365C339.865 15.0521 339.13 13.0157 337.891 11.4063C336.651 9.80212 335 8.63025 332.938 7.89587C330.87 7.1615 328.505 6.79171 325.844 6.79171H311.188L323.229 -34.3854C323.594 -35.6718 324.078 -36.526 324.677 -36.9322C325.276 -37.3489 326.214 -37.552 327.505 -37.552H336.172L328.458 -11.5208L351.729 -16.7552Z" fill="#FF1744" fill-opacity="0.3"/>
</g>
<mask id="mask10_3_3" style="mask-type:luminance" maskUnits="userSpaceOnUse" x="0" y="92" width="156" height="81">
<path d="M0.25 92.6354H155.5V172.667H0.25V92.6354Z" fill="white"/>
</mask>
<g mask="url(#mask10_3_3)">
<path d="M189.818 92.6354L25.7449 101.594L176.755 100.401C176.24 101.51 175.76 102.641 175.323 103.781L175.271 101.177L22.922 109.354L173.74 108.349C173.662 108.609 173.578 108.865 173.5 109.125L20.0938 117.12L171.625 116.297C171.563 116.557 171.505 116.823 171.448 117.083L17.2709 124.885L169.932 124.245C169.88 124.51 169.823 124.771 169.771 125.036L14.4428 132.651L168.26 132.193C168.203 132.458 168.146 132.719 168.089 132.984L11.6199 140.406L166.563 140.13C166.505 140.396 166.448 140.661 166.391 140.927L8.79175 148.172L164.859 148.078C164.802 148.344 164.745 148.609 164.688 148.875L5.96883 155.938L163.162 156.026C163.104 156.292 163.047 156.557 162.99 156.828L3.14591 163.703L161.458 163.974C161.401 164.24 161.344 164.51 161.287 164.776L0.322998 171.464L162.188 171.922L162.151 169.167C162.526 169.094 162.859 168.839 162.969 168.333C165.62 155.938 168.276 143.547 170.927 131.161C173.297 120.099 174.943 108.328 180.484 98.3177L189.818 92.6354Z" fill="#3D0C59" fill-opacity="0.3"/>
<mask id="mask11_3_3" style="mask-type:luminance" maskUnits="userSpaceOnUse" x="148" y="92" width="8" height="84">
<path d="M148.667 92.6354H155.5V175.432H148.667V92.6354Z" fill="white"/>
</mask>
<g mask="url(#mask11_3_3)">
<path d="M205.953 92.6354L177.083 167.703L189.818 92.6354L168.047 93.4427L149.656 227.672H170.786L228.135 92.6354H205.953Z" fill="#3D0C59" fill-opacity="0.3"/>
</g>
</g>
<path d="M187.982 0.46875H199.315C204.118 0.46875 207.753 1.70833 210.211 4.17708C212.68 6.63542 213.92 10.2604 213.92 15.0521V25.8021C213.92 26.8854 213.378 27.4271 212.295 27.4271H201.753C200.67 27.4271 200.128 26.8854 200.128 25.8021V17.8854C200.128 15.1927 198.779 13.8438 196.086 13.8438H191.211C188.513 13.8438 187.17 15.1927 187.17 17.8854V31.8854L211.274 39.7812C213.034 40.5312 213.92 41.7812 213.92 43.5312V66.9479C213.92 71.6719 212.68 75.2812 210.211 77.7812C207.753 80.2812 204.118 81.5312 199.315 81.5312H187.982C183.243 81.5312 179.628 80.2812 177.128 77.7812C174.628 75.2812 173.378 71.6719 173.378 66.9479V56.3021C173.378 55.2188 173.92 54.6771 175.003 54.6771H185.545C186.628 54.6771 187.17 55.2188 187.17 56.3021V64.0938C187.17 66.8021 188.513 68.1562 191.211 68.1562H196.086C198.779 68.1562 200.128 66.8021 200.128 64.0938V50.6146L176.128 42.7188C174.295 42.1094 173.378 40.8594 173.378 38.9688V15.0521C173.378 10.2604 174.628 6.63542 177.128 4.17708C179.628 1.70833 183.243 0.46875 187.982 0.46875Z" fill="#FF1744"/>
<path d="M237.838 68.1562V12.2188C237.838 11.1354 237.296 10.5938 236.213 10.5938H225.671C224.588 10.5938 224.046 11.1354 224.046 12.2188V79.9062C224.046 80.9896 224.588 81.5312 225.671 81.5312H257.9C258.983 81.5312 259.525 80.9896 259.525 79.9062V69.7812C259.525 68.6979 258.983 68.1562 257.9 68.1562H237.838Z" fill="#FF1744"/>
<path d="M271.272 81.5312H281.814C282.897 81.5312 283.439 80.9896 283.439 79.9062V12.2188C283.439 11.1354 282.897 10.5938 281.814 10.5938H271.272C270.189 10.5938 269.647 11.1354 269.647 12.2188V79.9062C269.647 80.9896 270.189 81.5312 271.272 81.5312Z" fill="#FF1744"/>
<path d="M293.563 79.9062V12.2188C293.563 11.1354 294.104 10.5938 295.188 10.5938H319.5C324.302 10.5938 327.938 11.8438 330.396 14.3438C332.865 16.8438 334.104 20.4896 334.104 25.2812V66.9479C334.104 71.6719 332.865 75.2812 330.396 77.7812C327.938 80.2812 324.302 81.5312 319.5 81.5312H295.188C294.104 81.5312 293.563 80.9896 293.563 79.9062ZM307.354 68.1562H316.667C319.375 68.1562 320.729 66.8021 320.729 64.0938V28.1354C320.729 25.3594 319.375 23.9688 316.667 23.9688H307.354V68.1562Z" fill="#FF1744"/>
<path d="M384.668 12.2188V22.3438C384.668 23.5 384.127 24.0729 383.043 24.0729H358.023V39.6771H377.064C378.148 39.6771 378.689 40.2552 378.689 41.4062V51.4271C378.689 52.5833 378.148 53.1562 377.064 53.1562H358.023V68.1562H383.043C384.127 68.1562 384.668 68.6979 384.668 69.7812V79.9062C384.668 80.9896 384.127 81.5312 383.043 81.5312H345.752C344.736 81.5312 344.231 80.9896 344.231 79.9062V12.2188C344.231 11.1354 344.736 10.5938 345.752 10.5938H383.043C384.127 10.5938 384.668 11.1354 384.668 12.2188Z" fill="#FF1744"/>
<path d="M156.609 92.3245H167.942C172.744 92.3245 176.38 93.564 178.838 96.0328C181.307 98.4911 182.546 102.116 182.546 106.908V117.658C182.546 118.741 182.005 119.283 180.921 119.283H170.38C169.296 119.283 168.755 118.741 168.755 117.658V109.741C168.755 107.048 167.406 105.699 164.713 105.699H159.838C157.14 105.699 155.796 107.048 155.796 109.741V123.741L179.9 131.637C181.661 132.387 182.546 133.637 182.546 135.387V158.804C182.546 163.528 181.307 167.137 178.838 169.637C176.38 172.137 172.744 173.387 167.942 173.387H156.609C151.869 173.387 148.255 172.137 145.755 169.637C143.255 167.137 142.005 163.528 142.005 158.804V148.158C142.005 147.074 142.546 146.533 143.63 146.533H154.171C155.255 146.533 155.796 147.074 155.796 148.158V155.949C155.796 158.658 157.14 160.012 159.838 160.012H164.713C167.406 160.012 168.755 158.658 168.755 155.949V142.47L144.755 134.574C142.921 133.965 142.005 132.715 142.005 130.824V106.908C142.005 102.116 143.255 98.4911 145.755 96.0328C148.255 93.564 151.869 92.3245 156.609 92.3245Z" fill="#3D0C59"/>
<path d="M227.944 102.449H238.069C238.819 102.449 239.36 102.673 239.694 103.116C240.027 103.548 240.027 104.106 239.694 104.783L221.152 146.845V171.366C221.152 172.715 220.475 173.387 219.131 173.387H209.402C208.037 173.387 207.36 172.715 207.36 171.366V146.845L188.819 104.783C188.553 104.106 188.574 103.548 188.881 103.116C189.183 102.673 189.704 102.449 190.444 102.449H200.589C201.725 102.449 202.496 102.991 202.902 104.074L214.256 130.116L225.61 104.074C226.011 102.991 226.787 102.449 227.944 102.449Z" fill="#3D0C59"/>
<path d="M278.101 102.449H287.621C288.705 102.449 289.246 102.991 289.246 104.074V171.762C289.246 172.845 288.705 173.387 287.621 173.387H279.621C278.814 173.387 278.205 172.949 277.788 172.074L258.746 133.366V171.762C258.746 172.845 258.205 173.387 257.121 173.387H247.601C246.517 173.387 245.976 172.845 245.976 171.762V104.074C245.976 102.991 246.517 102.449 247.601 102.449H255.601C256.418 102.449 257.028 102.887 257.434 103.762L276.476 142.47V104.074C276.476 102.991 277.017 102.449 278.101 102.449Z" fill="#3D0C59"/>
<path d="M340.026 117.054V127.991C340.026 129.074 339.484 129.616 338.401 129.616H328.88C327.797 129.616 327.255 129.074 327.255 127.991V119.679C327.255 116.986 325.901 115.637 323.192 115.637H316.713C314.005 115.637 312.651 116.986 312.651 119.679V156.47C312.651 159.168 314.005 160.512 316.713 160.512H323.192C325.901 160.512 327.255 159.168 327.255 156.47V147.845C327.255 146.762 327.797 146.22 328.88 146.22H338.401C339.484 146.22 340.026 146.762 340.026 147.845V158.804C340.026 163.528 338.776 167.137 336.276 169.637C333.776 172.137 330.156 173.387 325.422 173.387H314.067C309.343 173.387 305.713 172.137 303.172 169.637C300.64 167.137 299.38 163.528 299.38 158.804V117.054C299.38 112.252 300.64 108.616 303.172 106.158C305.713 103.689 309.343 102.449 314.067 102.449H325.422C330.156 102.449 333.776 103.689 336.276 106.158C338.776 108.616 340.026 112.252 340.026 117.054Z" fill="#3D0C59"/>
</svg>
