<svg width="676" height="82" viewBox="0 0 676 82" fill="none" xmlns="http://www.w3.org/2000/svg">
<mask id="mask0_3_97" style="mask-type:luminance" maskUnits="userSpaceOnUse" x="533" y="75" width="134" height="6">
<path d="M533 75.2031H666.365V80.625H533V75.2031Z" fill="white"/>
</mask>
<g mask="url(#mask0_3_97)">
<path d="M497.88 77.0312L665.297 75.776L490.135 84.8385L497.88 77.0312Z" fill="#3D0C59" fill-opacity="0.3"/>
</g>
<mask id="mask1_3_97" style="mask-type:luminance" maskUnits="userSpaceOnUse" x="533" y="67" width="137" height="10">
<path d="M533 67.2031H669.031V76.5365H533V67.2031Z" fill="white"/>
</mask>
<g mask="url(#mask1_3_97)">
<path d="M499.615 68.6927L668.266 67.6302L499.766 76.2187L499.615 68.6927Z" fill="#3D0C59" fill-opacity="0.3"/>
</g>
<mask id="mask2_3_97" style="mask-type:luminance" maskUnits="userSpaceOnUse" x="533" y="59" width="139" height="10">
<path d="M533 59.2031H671.698V68.5365H533V59.2031Z" fill="white"/>
</mask>
<g mask="url(#mask2_3_97)">
<path d="M501.349 60.3542L671.224 59.4844L501.495 67.875L501.349 60.3542Z" fill="#3D0C59" fill-opacity="0.3"/>
</g>
<mask id="mask3_3_97" style="mask-type:luminance" maskUnits="userSpaceOnUse" x="533" y="51" width="142" height="10">
<path d="M533 51.2031H674.365V60.5365H533V51.2031Z" fill="white"/>
</mask>
<g mask="url(#mask3_3_97)">
<path d="M503.089 52.0104L674.193 51.3333L503.224 59.5364L503.089 52.0104Z" fill="#3D0C59" fill-opacity="0.3"/>
</g>
<mask id="mask4_3_97" style="mask-type:luminance" maskUnits="userSpaceOnUse" x="533" y="41" width="143" height="11">
<path d="M533 41.8698H675.307V51.2031H533V41.8698Z" fill="white"/>
</mask>
<g mask="url(#mask4_3_97)">
<path d="M504.818 43.6719L677.156 43.1875L504.948 51.1979L504.818 43.6719Z" fill="#3D0C59" fill-opacity="0.3"/>
</g>
<mask id="mask5_3_97" style="mask-type:luminance" maskUnits="userSpaceOnUse" x="533" y="33" width="143" height="11">
<path d="M533 33.8698H675.307V43.2031H533V33.8698Z" fill="white"/>
</mask>
<g mask="url(#mask5_3_97)">
<path d="M506.557 35.3333L680.125 35.0416L506.682 42.8541L506.557 35.3333Z" fill="#3D0C59" fill-opacity="0.3"/>
</g>
<mask id="mask6_3_97" style="mask-type:luminance" maskUnits="userSpaceOnUse" x="533" y="25" width="143" height="11">
<path d="M533 25.8698H675.307V35.2031H533V25.8698Z" fill="white"/>
</mask>
<g mask="url(#mask6_3_97)">
<path d="M508.297 26.9947L683.083 26.8958L508.411 34.5155L508.297 26.9947Z" fill="#3D0C59" fill-opacity="0.3"/>
</g>
<mask id="mask7_3_97" style="mask-type:luminance" maskUnits="userSpaceOnUse" x="533" y="17" width="143" height="11">
<path d="M533 17.8698H675.307V27.2031H533V17.8698Z" fill="white"/>
</mask>
<g mask="url(#mask7_3_97)">
<path d="M510.026 18.6562L686.052 18.75L510.141 26.1771L510.026 18.6562Z" fill="#3D0C59" fill-opacity="0.3"/>
</g>
<mask id="mask8_3_97" style="mask-type:luminance" maskUnits="userSpaceOnUse" x="533" y="9" width="143" height="9">
<path d="M533 9.86975H675.307V17.8698H533V9.86975Z" fill="white"/>
</mask>
<g mask="url(#mask8_3_97)">
<path d="M511.766 10.3176L689.016 10.5989L511.87 17.8333L511.766 10.3176Z" fill="#3D0C59" fill-opacity="0.3"/>
</g>
<mask id="mask9_3_97" style="mask-type:luminance" maskUnits="userSpaceOnUse" x="533" y="3" width="21" height="78">
<path d="M533 3H553.031V80.625H533V3Z" fill="white"/>
</mask>
<g mask="url(#mask9_3_97)">
<path d="M540.729 -17.7552L552.161 -56.8698H509.333C507.589 -56.8698 505.839 -56.7343 504.099 -56.4531C502.354 -56.1822 500.724 -55.6093 499.208 -54.7343C497.693 -53.8593 496.339 -52.6458 495.146 -51.0833C493.948 -49.5208 492.99 -47.5052 492.255 -45.0208L472.151 23.0105H503.687C504.604 23.0105 505.135 23.198 505.271 23.5625C505.411 23.9271 505.385 24.3855 505.203 24.9375L494.047 62.6771C493.682 63.9584 493.172 64.8125 492.536 65.224C491.891 65.6355 490.927 65.8386 489.641 65.8386H484.406C483.583 65.8386 482.896 65.6823 482.344 65.3594C481.792 65.0365 481.698 64.2813 482.068 63.0834L487.302 45.7344H465.406L458.521 69.4219C457.146 74.0157 457.531 77.7344 459.687 80.5782C461.849 83.4271 464.896 84.8438 468.849 84.8438H495.984C497.724 84.8438 499.495 84.7084 501.281 84.4323C503.078 84.1563 504.771 83.6042 506.375 82.7813C507.984 81.9532 509.453 80.7865 510.781 79.2657C512.109 77.75 513.141 75.75 513.88 73.2761L527.927 25.4844C528.937 22 529.323 19.0157 529.094 16.5365C528.865 14.0521 528.13 12.0157 526.891 10.4063C525.651 8.80213 524 7.63025 521.937 6.89588C519.87 6.1615 517.505 5.79171 514.844 5.79171H500.187L512.229 -35.3854C512.594 -36.6718 513.078 -37.526 513.677 -37.9322C514.276 -38.3489 515.214 -38.552 516.505 -38.552H525.172L517.458 -12.5208L540.729 -17.7552Z" fill="#3D0C59" fill-opacity="0.3"/>
</g>
<mask id="mask10_3_97" style="mask-type:luminance" maskUnits="userSpaceOnUse" x="0" y="0" width="156" height="81">
<path d="M0 0H155.25V80.0313H0V0Z" fill="white"/>
</mask>
<g mask="url(#mask10_3_97)">
<path d="M189.568 0L25.4948 8.95833L176.505 7.76563C175.99 8.875 175.51 10.0052 175.073 11.1458L175.021 8.54167L22.6718 16.7188L173.49 15.7135C173.411 15.974 173.328 16.2292 173.25 16.4896L19.8437 24.4844L171.375 23.6615C171.312 23.9219 171.255 24.1875 171.198 24.4479L17.0208 32.25L169.682 31.6094C169.63 31.875 169.573 32.1354 169.521 32.401L14.1927 40.0156L168.01 39.5573C167.953 39.8229 167.896 40.0833 167.839 40.349L11.3698 47.7708L166.312 47.4948C166.255 47.7604 166.198 48.026 166.141 48.2917L8.54163 55.5365L164.609 55.4427C164.552 55.7083 164.495 55.974 164.437 56.2396L5.71871 63.3021L162.911 63.3906C162.854 63.6563 162.797 63.9219 162.74 64.1927L2.89579 71.0677L161.208 71.3385C161.151 71.6042 161.094 71.875 161.036 72.1406L0.072876 78.8281L161.937 79.2865L161.901 76.5313C162.276 76.4583 162.609 76.2031 162.719 75.6979C165.37 63.3021 168.026 50.9115 170.677 38.526C173.047 27.4635 174.693 15.6927 180.234 5.68229L189.568 0Z" fill="#FF1744" fill-opacity="0.3"/>
<mask id="mask11_3_97" style="mask-type:luminance" maskUnits="userSpaceOnUse" x="148" y="0" width="8" height="83">
<path d="M148.417 0H155.25V82.7969H148.417V0Z" fill="white"/>
</mask>
<g mask="url(#mask11_3_97)">
<path d="M205.703 0L176.833 75.0677L189.568 0L167.797 0.807292L149.406 135.036H170.537L227.886 0H205.703Z" fill="#FF1744" fill-opacity="0.3"/>
</g>
</g>
<path d="M156.732 0H168.065C172.868 0 176.503 1.23958 178.961 3.70833C181.43 6.16667 182.67 9.79167 182.67 14.5833V25.3333C182.67 26.4167 182.128 26.9583 181.045 26.9583H170.503C169.42 26.9583 168.878 26.4167 168.878 25.3333V17.4167C168.878 14.724 167.529 13.375 164.836 13.375H159.961C157.263 13.375 155.92 14.724 155.92 17.4167V31.4167L180.024 39.3125C181.784 40.0625 182.67 41.3125 182.67 43.0625V66.4792C182.67 71.2031 181.43 74.8125 178.961 77.3125C176.503 79.8125 172.868 81.0625 168.065 81.0625H156.732C151.993 81.0625 148.378 79.8125 145.878 77.3125C143.378 74.8125 142.128 71.2031 142.128 66.4792V55.8333C142.128 54.75 142.67 54.2083 143.753 54.2083H154.295C155.378 54.2083 155.92 54.75 155.92 55.8333V63.625C155.92 66.3333 157.263 67.6875 159.961 67.6875H164.836C167.529 67.6875 168.878 66.3333 168.878 63.625V50.1458L144.878 42.25C143.045 41.6406 142.128 40.3906 142.128 38.5V14.5833C142.128 9.79167 143.378 6.16667 145.878 3.70833C148.378 1.23958 151.993 0 156.732 0Z" fill="#FF1744"/>
<path d="M206.588 67.6875V11.75C206.588 10.6667 206.046 10.125 204.963 10.125H194.421C193.338 10.125 192.796 10.6667 192.796 11.75V79.4375C192.796 80.5208 193.338 81.0625 194.421 81.0625H226.65C227.733 81.0625 228.275 80.5208 228.275 79.4375V69.3125C228.275 68.2292 227.733 67.6875 226.65 67.6875H206.588Z" fill="#FF1744"/>
<path d="M240.022 81.0625H250.564C251.647 81.0625 252.189 80.5208 252.189 79.4375V11.75C252.189 10.6667 251.647 10.125 250.564 10.125H240.022C238.939 10.125 238.397 10.6667 238.397 11.75V79.4375C238.397 80.5208 238.939 81.0625 240.022 81.0625Z" fill="#FF1744"/>
<path d="M262.313 79.4375V11.75C262.313 10.6667 262.854 10.125 263.938 10.125H288.25C293.052 10.125 296.688 11.375 299.146 13.875C301.615 16.375 302.854 20.0208 302.854 24.8125V66.4792C302.854 71.2031 301.615 74.8125 299.146 77.3125C296.688 79.8125 293.052 81.0625 288.25 81.0625H263.938C262.854 81.0625 262.313 80.5208 262.313 79.4375ZM276.104 67.6875H285.417C288.125 67.6875 289.479 66.3333 289.479 63.625V27.6667C289.479 24.8906 288.125 23.5 285.417 23.5H276.104V67.6875Z" fill="#FF1744"/>
<path d="M353.418 11.75V21.875C353.418 23.0312 352.877 23.6042 351.793 23.6042H326.773V39.2083H345.814C346.898 39.2083 347.439 39.7865 347.439 40.9375V50.9583C347.439 52.1146 346.898 52.6875 345.814 52.6875H326.773V67.6875H351.793C352.877 67.6875 353.418 68.2292 353.418 69.3125V79.4375C353.418 80.5208 352.877 81.0625 351.793 81.0625H314.502C313.486 81.0625 312.981 80.5208 312.981 79.4375V11.75C312.981 10.6667 313.486 10.125 314.502 10.125H351.793C352.877 10.125 353.418 10.6667 353.418 11.75Z" fill="#FF1744"/>
<path d="M378.604 0H389.938C394.74 0 398.375 1.23958 400.833 3.70833C403.302 6.16667 404.542 9.79167 404.542 14.5833V25.3333C404.542 26.4167 404 26.9583 402.917 26.9583H392.375C391.292 26.9583 390.75 26.4167 390.75 25.3333V17.4167C390.75 14.724 389.401 13.375 386.708 13.375H381.833C379.135 13.375 377.792 14.724 377.792 17.4167V31.4167L401.896 39.3125C403.656 40.0625 404.542 41.3125 404.542 43.0625V66.4792C404.542 71.2031 403.302 74.8125 400.833 77.3125C398.375 79.8125 394.74 81.0625 389.938 81.0625H378.604C373.865 81.0625 370.25 79.8125 367.75 77.3125C365.25 74.8125 364 71.2031 364 66.4792V55.8333C364 54.75 364.542 54.2083 365.625 54.2083H376.167C377.25 54.2083 377.792 54.75 377.792 55.8333V63.625C377.792 66.3333 379.135 67.6875 381.833 67.6875H386.708C389.401 67.6875 390.75 66.3333 390.75 63.625V50.1458L366.75 42.25C364.917 41.6406 364 40.3906 364 38.5V14.5833C364 9.79167 365.25 6.16667 367.75 3.70833C370.25 1.23958 373.865 0 378.604 0Z" fill="#3D0C59"/>
<path d="M449.939 10.125H460.064C460.814 10.125 461.356 10.349 461.689 10.7917C462.022 11.224 462.022 11.7812 461.689 12.4583L443.147 54.5208V79.0417C443.147 80.3906 442.47 81.0625 441.126 81.0625H431.397C430.033 81.0625 429.356 80.3906 429.356 79.0417V54.5208L410.814 12.4583C410.548 11.7812 410.569 11.224 410.876 10.7917C411.178 10.349 411.699 10.125 412.439 10.125H422.585C423.72 10.125 424.491 10.6667 424.897 11.75L436.251 37.7917L447.606 11.75C448.007 10.6667 448.783 10.125 449.939 10.125Z" fill="#3D0C59"/>
<path d="M500.096 10.125H509.617C510.7 10.125 511.242 10.6667 511.242 11.75V79.4375C511.242 80.5208 510.7 81.0625 509.617 81.0625H501.617C500.809 81.0625 500.2 80.625 499.783 79.75L480.742 41.0417V79.4375C480.742 80.5208 480.2 81.0625 479.117 81.0625H469.596C468.513 81.0625 467.971 80.5208 467.971 79.4375V11.75C467.971 10.6667 468.513 10.125 469.596 10.125H477.596C478.414 10.125 479.023 10.5625 479.429 11.4375L498.471 50.1458V11.75C498.471 10.6667 499.013 10.125 500.096 10.125Z" fill="#3D0C59"/>
<path d="M562.021 24.7292V35.6667C562.021 36.75 561.479 37.2917 560.396 37.2917H550.875C549.792 37.2917 549.25 36.75 549.25 35.6667V27.3542C549.25 24.6615 547.896 23.3125 545.188 23.3125H538.709C536 23.3125 534.646 24.6615 534.646 27.3542V64.1458C534.646 66.8438 536 68.1875 538.709 68.1875H545.188C547.896 68.1875 549.25 66.8438 549.25 64.1458V55.5208C549.25 54.4375 549.792 53.8958 550.875 53.8958H560.396C561.479 53.8958 562.021 54.4375 562.021 55.5208V66.4792C562.021 71.2031 560.771 74.8125 558.271 77.3125C555.771 79.8125 552.151 81.0625 547.417 81.0625H536.063C531.339 81.0625 527.709 79.8125 525.167 77.3125C522.636 74.8125 521.375 71.2031 521.375 66.4792V24.7292C521.375 19.9271 522.636 16.2917 525.167 13.8333C527.709 11.3646 531.339 10.125 536.063 10.125H547.417C552.151 10.125 555.771 11.3646 558.271 13.8333C560.771 16.2917 562.021 19.9271 562.021 24.7292Z" fill="#3D0C59"/>
</svg>
